<svg xmlns="http://www.w3.org/2000/svg" width="1440" height="197" viewBox="0 0 1440 197" fill="none">
<path d="M1440 50.2051V160H0V17.7012L45.7041 0L251.39 41.8633L302.718 25.1016L398.525 50.2051L556 0L878 25.1016L949.669 50.2051L1088.5 0L1440 50.2051Z" fill="#211A29"/>
<path d="M539.652 55.625L489.5 89.5L351.496 1L539.652 55.625ZM1122.4 58.0889L1041.5 88.5L884 1L1122.4 58.0889ZM1269.21 64.9102L1186.5 75.5L1137.28 42.5762L1269.21 64.9102ZM1440 7.28125V37.3867L1394.3 1L1440 7.28125Z" fill="#1A1823"/>
<path d="M1440 30.3174V197H0V84.1514L351.496 1L490.331 84.1514L562 42.5762L884 1L1041.47 84.1514L1137.28 42.5762L1188.61 70.3359L1394.3 1L1440 30.3174Z" fill="#2F2439"/>
</svg>